<svg xmlns="http://www.w3.org/2000/svg" xmlns:xlink="http://www.w3.org/1999/xlink" viewBox="0 0 24 24" id="doc-type-artboard"><g fill="none" fill-rule="evenodd">



  <path fill="#DE5F31" d="M4.875 2.625h14.25a2.25 2.25 0 012.25 2.25v14.25a2.25 2.25 0 01-2.25 2.25H4.875a2.25 2.25 0 01-2.25-2.25V4.875a2.25 2.25 0 012.25-2.25z" id="doc-type-artboard_b"></path>
  <path d="M1.5 20.25l4.102-6.035a.737.737 0 011.218 0l2.686 3.845M9.506 18.06l5.12-7.314a.737.737 0 011.217 0l6.587 9.504" stroke="#FFF" stroke-width="2.063" stroke-linecap="round" stroke-linejoin="round" mask="url(#doc-type-artboard_c)"></path><path d="M9 9.469a1.406 1.406 0 100-2.813A1.406 1.406 0 009 9.47z" fill="#FFF" mask="url(#doc-type-artboard_c)"></path></g></svg>
