<svg xmlns="http://www.w3.org/2000/svg" xmlns:xlink="http://www.w3.org/1999/xlink" viewBox="0 0 24 24" id="book-type-default"><g fill="none" fill-rule="evenodd"><g mask="url(#book-type-default_b)"><path d="M16.875 1.594H18a2.25 2.25 0 012.25 2.25v16.312a2.25 2.25 0 01-2.25 2.25h-1.125V1.594zm-2.063 20.812h-8.25a2.25 2.25 0 01-2.25-2.25V3.844a2.25 2.25 0 012.25-2.25h8.25v20.812z" fill="#4E86E6"></path><path d="M3.656 11.063h1.5a.938.938 0 010 1.874h-1.5a.937.937 0 110-1.874zM3.656 5.625h1.5a.938.938 0 010 1.875h-1.5a.938.938 0 010-1.875zM3.656 16.5h1.5a.937.937 0 110 1.875h-1.5a.937.937 0 110-1.875z" fill="#4E86E6"></path></g></g></svg>
