<svg xmlns="http://www.w3.org/2000/svg" xmlns:xlink="http://www.w3.org/1999/xlink" viewBox="0 0 24 24" id="book-type-blog"><g fill="none" fill-rule="evenodd"><g mask="url(#book-type-blog_b)"><path d="M18.188 1.594a2.25 2.25 0 012.25 2.25v16.312a2.25 2.25 0 01-2.25 2.25H6a2.25 2.25 0 01-2.25-2.25V3.844A2.25 2.25 0 016 1.594h12.188zM15.844 7.03H8.156c-.621 0-1.125.504-1.125 1.125v7.875c0 .622.504 1.125 1.125 1.125h7.688c.621 0 1.125-.503 1.125-1.125V8.156c0-.621-.504-1.125-1.125-1.125zm-.75 5.625c.207 0 .375.168.375.375v2.25l-.008.076a.375.375 0 01-.367.3h-1.406l-.076-.008a.375.375 0 01-.3-.368v-2.25l.008-.075c.035-.171.186-.3.367-.3zm-3.188 2.063a.469.469 0 110 .937H9l-.084-.007a.469.469 0 01.084-.93zm0-2.063a.469.469 0 110 .938H9l-.084-.008a.469.469 0 01.084-.93zm3.188-4.125c.207 0 .375.168.375.375v2.25l-.008.076a.375.375 0 01-.367.3h-1.406l-.076-.008a.375.375 0 01-.3-.368v-2.25l.008-.075c.035-.171.186-.3.367-.3zm-3.188 2.063a.469.469 0 110 .937H9l-.084-.007a.469.469 0 01.084-.93zm0-2.063a.469.469 0 110 .938H9l-.084-.008A.469.469 0 019 8.531z" fill="#4E86E6"></path><path d="M3.094 11.063h1.5a.938.938 0 010 1.874h-1.5a.937.937 0 110-1.874zM3.094 5.625h1.5a.938.938 0 010 1.875h-1.5a.938.938 0 010-1.875zM3.094 16.5h1.5a.937.937 0 110 1.875h-1.5a.937.937 0 110-1.875z" fill="#4E86E6"></path></g></g></svg>
