<svg xmlns="http://www.w3.org/2000/svg" xmlns:xlink="http://www.w3.org/1999/xlink" viewBox="0 0 24 24" id="doc-type-default"><g fill="none" fill-rule="evenodd"><path d="M18.375 2.625a3 3 0 013 3v12.75a3 3 0 01-3 3H5.625a3 3 0 01-3-3V5.625a3 3 0 013-3h12.75zm-7.406 12.469H7.03a1.031 1.031 0 000 2.062h3.938a1.031 1.031 0 000-2.062zm6-4.125H7.03a1.031 1.031 0 000 2.062h9.938a1.031 1.031 0 000-2.062zm0-4.125H7.03a1.031 1.031 0 100 2.062h9.938a1.031 1.031 0 000-2.062z" fill="#4E86E6" mask="url(#doc-type-default_b)"></path></g></svg>
