<svg xmlns="http://www.w3.org/2000/svg" xmlns:xlink="http://www.w3.org/1999/xlink" viewBox="0 0 24 24" id="book-type-resource"><g fill="none" fill-rule="evenodd"><path d="M6.619 3.537L7.78 5.063h12c.622 0 1.125.503 1.125 1.125v1.03c0 .622-.503 1.126-1.125 1.126H6.047a2.438 2.438 0 00-2.295 1.73l-.01.035-1.31 5.805a.188.188 0 01-.37-.041V4.219c0-.622.504-1.125 1.125-1.125h2.537c.351 0 .682.164.895.443z" fill="#F7AD2D" mask="url(#book-type-resource_b)"></path><path d="M4.501 21h14.55a1.5 1.5 0 001.463-1.17l1.863-8.238a1.125 1.125 0 00-1.097-1.373H6.73a1.5 1.5 0 00-1.463 1.169l-1.863 8.239A1.125 1.125 0 004.501 21z" fill="#F7AD2D" mask="url(#book-type-resource_b)"></path></g></svg>
