<svg xmlns="http://www.w3.org/2000/svg" xmlns:xlink="http://www.w3.org/1999/xlink" viewBox="0 0 26 26" id="topic"><g fill="none" fill-rule="evenodd"><path d="M20.156 2.844a3 3 0 013 3v14.312a3 3 0 01-3 3H5.844a3 3 0 01-3-3V5.844a3 3 0 013-3h14.312zm-8.073 3.99a5.75 5.75 0 00-5.07 8.463c.046.087.138.246.276.48l-.37 1.357a.5.5 0 00.614.614l1.358-.37.24.14a5.775 5.775 0 003.979.724 3.985 3.985 0 002.557.925 3.983 3.983 0 002.054-.568l.098-.057.838.229a.5.5 0 00.614-.614l-.229-.837c.074-.126.124-.213.152-.265a3.998 3.998 0 00-1.418-5.287 5.751 5.751 0 00-5.693-4.935zm5.46 6.251c.51.55.794 1.289.793 2.057.001.485-.112.962-.329 1.389-.071.135-.145.27-.22.403a.515.515 0 00-.049.379l.05.193-.183-.053a.442.442 0 00-.355.05l-.269.165a2.657 2.657 0 01-2.645.123c1.767-.805 3.04-2.589 3.208-4.706zm-5.693.248a.75.75 0 010 1.5h-1.5l-.102-.007a.75.75 0 01.102-1.493zm2.138-2.748a.75.75 0 010 1.5h-3.646l-.102-.007a.75.75 0 01.102-1.493z" fill="#F7AD2D" mask="url(#topic_b)"></path></g></svg>
